<svg width="183" height="41" viewBox="0 0 183 41" fill="none" xmlns="http://www.w3.org/2000/svg">
<path opacity="0.15" d="M15.3066 35.9092L26.7855 35.8535L31.4094 40.5052H19.9305L15.3066 35.9092Z" fill="#1D1D1B"/>
<path d="M11.9185 20.6918L5.95923 26.6176L0 20.6918L5.95923 14.7715L11.9185 20.6918Z" fill="#006DB1"/>
<path d="M18.8459 13.8087L12.8867 19.7345L6.92188 13.8087L12.8867 7.88281L18.8459 13.8087Z" fill="#E30613"/>
<path d="M25.7681 6.92584L19.8088 12.8517L13.8496 6.92584L19.8088 1L25.7681 6.92584Z" fill="#006DB1"/>
<path d="M18.9683 27.7032L13.009 33.629L7.0498 27.7032L13.009 21.7773L18.9683 27.7032Z" fill="#00A298"/>
<path d="M25.8957 20.8148L19.9365 26.7406L13.9717 20.8148L19.9365 14.8945L25.8957 20.8148Z" fill="#FFDD00"/>
<path d="M32.8179 13.9317L26.8586 19.8575L20.8994 13.9317L26.8586 8.00586L32.8179 13.9317Z" fill="#00A298"/>
<path d="M25.8843 34.5801L19.925 40.506L13.9658 34.5801L19.9306 28.6543L25.8843 34.5801Z" fill="#E30613"/>
<path d="M32.812 27.6918L26.8528 33.6176L20.8936 27.6918L26.8528 21.7715L32.812 27.6918Z" fill="#006DB1"/>
<path d="M38.5097 24.7486L30.2246 23.2018L31.777 14.9668L40.0621 16.5136L38.5097 24.7486Z" fill="#E30613"/>
<path d="M50.5 12.8627V8.07195C50.5 7.8939 50.6391 7.77148 50.8394 7.77148H50.9563C51.1621 7.77148 51.2957 7.8939 51.2957 8.07195V12.8627C51.2957 13.0408 51.1677 13.1632 50.9563 13.1632H50.8394C50.6391 13.1632 50.5 13.0408 50.5 12.8627Z" fill="#1D1D1B" stroke="#1D1D1B" stroke-width="0.26" stroke-miterlimit="10"/>
<path d="M52.7867 9.31227H52.8646C53.0649 9.31227 53.204 9.43468 53.204 9.61274V9.65169C53.4711 9.40686 53.8606 9.23438 54.3836 9.23438C55.5409 9.23438 56.1641 9.89651 56.1641 11.0539V12.8622C56.1641 13.0403 56.025 13.1627 55.8247 13.1627H55.7468C55.5465 13.1627 55.4074 13.0403 55.4074 12.8622V11.0539C55.4074 10.1246 55.0235 9.65169 54.3836 9.65169C53.7437 9.65169 53.204 10.2526 53.204 10.9927V12.8622C53.204 13.0403 53.0649 13.1627 52.8646 13.1627H52.7867C52.5864 13.1627 52.4473 13.0403 52.4473 12.8622V9.61274C52.4473 9.42912 52.5752 9.31227 52.7867 9.31227Z" fill="#1D1D1B" stroke="#1D1D1B" stroke-width="0.26" stroke-miterlimit="10"/>
<path d="M56.8545 11.2327C56.8545 10.131 57.7559 9.24072 58.8965 9.24072C59.414 9.24072 59.8536 9.41877 60.1874 9.70811V8.07781C60.1874 7.89419 60.321 7.77734 60.5268 7.77734H60.5936C60.7995 7.77734 60.933 7.89419 60.933 8.07781V12.8686C60.933 13.0466 60.7995 13.169 60.5936 13.169H60.5268C60.321 13.169 60.1874 13.0466 60.1874 12.8686V12.7684C59.848 13.0633 59.4084 13.2469 58.8965 13.2469C57.7503 13.2469 56.8545 12.3455 56.8545 11.2383V11.2327ZM58.8965 12.824C59.6978 12.824 60.1819 12.1842 60.1819 11.2327C60.1819 10.2812 59.6978 9.6469 58.8965 9.6469C58.1955 9.65247 57.6112 10.2757 57.6112 11.2327C57.6112 12.1897 58.1732 12.824 58.8965 12.824Z" fill="#1D1D1B" stroke="#1D1D1B" stroke-width="0.26" stroke-miterlimit="10"/>
<path d="M62.2789 9.3125H62.3568C62.5571 9.3125 62.6962 9.43491 62.6962 9.61297V11.4213C62.6962 12.2893 63.0801 12.8235 63.72 12.8235C64.3599 12.8235 64.8996 12.2393 64.8996 11.5159V9.61297C64.8996 9.43491 65.0387 9.3125 65.239 9.3125H65.3169C65.5172 9.3125 65.6563 9.43491 65.6563 9.61297V12.8624C65.6563 13.0461 65.5283 13.1629 65.3169 13.1629H65.239C65.0387 13.1629 64.8996 13.0405 64.8996 12.8624V12.8179C64.6325 13.0628 64.2375 13.2408 63.72 13.2408C62.5738 13.2408 61.9395 12.5342 61.9395 11.4213V9.61297C61.9395 9.43491 62.0786 9.3125 62.2789 9.3125Z" fill="#1D1D1B" stroke="#1D1D1B" stroke-width="0.26" stroke-miterlimit="10"/>
<path d="M66.3799 12.7011C66.3799 12.6455 66.3966 12.5954 66.4411 12.5342L66.5023 12.4508C66.5635 12.3562 66.6247 12.3283 66.7304 12.3283H66.7638C66.8417 12.3283 66.9252 12.3673 66.9808 12.4285C67.1366 12.5899 67.4593 12.8291 67.821 12.8291C68.3663 12.8291 68.6612 12.5231 68.6612 12.128C68.6612 11.1988 66.4578 11.4882 66.4689 10.2195C66.4689 9.62416 67.0643 9.25136 68.0102 9.24023C68.3941 9.24023 69.3011 9.3237 69.3011 9.8356C69.3011 10.0693 69.0562 10.264 68.906 10.264C68.8114 10.264 68.7502 10.2307 68.728 10.1472C68.689 9.98583 68.4831 9.65198 68.0046 9.65198C67.4259 9.65198 67.1978 9.93019 67.1978 10.2195C67.1978 11.0041 69.4235 10.7759 69.4235 12.1058C69.4235 12.8013 68.7836 13.2353 67.8154 13.2353C67.1756 13.2353 66.7304 13.035 66.5245 12.907C66.43 12.8514 66.3854 12.7735 66.3854 12.7011H66.3799Z" fill="#1D1D1B" stroke="#1D1D1B" stroke-width="0.26" stroke-miterlimit="10"/>
<path d="M69.6182 9.52358C69.6182 9.41786 69.7016 9.31771 69.8797 9.31771H70.2191V8.72234C70.2191 8.54429 70.3582 8.42188 70.5585 8.42188H70.6364C70.8367 8.42188 70.9758 8.54429 70.9758 8.72234V9.31771H71.7548C71.9162 9.31771 71.9941 9.42343 71.9941 9.52358C71.9941 9.62374 71.9162 9.72945 71.7548 9.72945H70.9758V11.9329C70.9758 12.5004 71.1316 12.7786 71.5155 12.7786C71.6101 12.7786 71.7103 12.7564 71.7938 12.7564C71.9495 12.7564 72.0497 12.8009 72.0553 12.9622C72.0608 13.068 71.9718 13.157 71.8104 13.1792C71.6658 13.2015 71.5322 13.2182 71.4043 13.2182C70.6253 13.2182 70.2247 12.7897 70.2247 11.9551V9.72945H69.8852C69.7072 9.72945 69.6237 9.62374 69.6237 9.52358H69.6182Z" fill="#1D1D1B" stroke="#1D1D1B" stroke-width="0.26" stroke-miterlimit="10"/>
<path d="M72.8232 12.8625V9.61303C72.8232 9.42942 72.9623 9.31257 73.1627 9.31257H73.2406C73.4409 9.31257 73.58 9.42942 73.58 9.61303V9.77996C73.8359 9.44611 74.2198 9.24023 74.7596 9.24023C75.1824 9.24023 75.3883 9.48506 75.3883 9.68537C75.3883 9.93019 75.2047 9.96914 75.1435 9.96914C74.9821 9.96914 75.0489 9.80222 74.626 9.80222C73.9861 9.80222 73.58 10.4588 73.58 11.2878V12.8569C73.58 13.035 73.4409 13.1574 73.2406 13.1574H73.1627C72.9623 13.1574 72.8232 13.035 72.8232 12.8569V12.8625Z" fill="#1D1D1B" stroke="#1D1D1B" stroke-width="0.26" stroke-miterlimit="10"/>
<path d="M75.8223 8.26574C75.8223 8.02648 76.0281 7.82617 76.3008 7.82617C76.5734 7.82617 76.7793 8.03205 76.7849 8.26574C76.7793 8.505 76.5623 8.71087 76.3063 8.71087C76.0281 8.71087 75.8223 8.51056 75.8223 8.26574ZM75.9335 9.61227C75.9335 9.43422 76.0671 9.3118 76.273 9.3118H76.3397C76.54 9.3118 76.6791 9.43422 76.6791 9.61227V12.8617C76.6791 13.0398 76.5456 13.1622 76.3397 13.1622H76.273C76.0671 13.1622 75.9335 13.0398 75.9335 12.8617V9.61227Z" fill="#1D1D1B" stroke="#1D1D1B" stroke-width="0.26" stroke-miterlimit="10"/>
<path d="M80.1964 10.7926C80.1741 10.1973 79.9571 9.66868 79.3284 9.66868C78.6996 9.66868 78.3435 9.99696 78.3435 10.2919C78.3491 10.3086 78.3435 10.431 78.1432 10.431C77.9429 10.431 77.7148 10.2863 77.7148 10.0081C77.7148 9.58521 78.4214 9.24023 79.334 9.24023C80.4969 9.24023 80.9587 9.88568 80.9587 10.9484V12.8736C80.9587 13.0517 80.8196 13.1741 80.6193 13.1741H80.5414C80.3411 13.1741 80.202 13.0517 80.202 12.8736V12.8514C79.9238 13.0962 79.5398 13.2353 79.0724 13.2464C78.2656 13.2464 77.5479 12.8458 77.5479 12.0279C77.5479 11.1376 78.3658 10.7982 79.2672 10.7982H80.2075L80.1964 10.7926ZM79.0669 12.8013C79.8236 12.8013 80.1964 12.2616 80.1964 11.7719V11.2266H79.2505C78.6496 11.2266 78.2935 11.4882 78.2935 12.0279C78.2935 12.5676 78.6217 12.8069 79.0613 12.8069L79.0669 12.8013Z" fill="#1D1D1B" stroke="#1D1D1B" stroke-width="0.26" stroke-miterlimit="10"/>
<path d="M81.6094 12.7011C81.6094 12.6455 81.6261 12.5954 81.6706 12.5342L81.7318 12.4508C81.793 12.3562 81.8542 12.3283 81.9599 12.3283H81.9933C82.0712 12.3283 82.1547 12.3673 82.2103 12.4285C82.3661 12.5899 82.6888 12.8291 83.0505 12.8291C83.5958 12.8291 83.8907 12.5231 83.8907 12.128C83.8907 11.1988 81.6873 11.4882 81.6984 10.2195C81.6984 9.62416 82.2938 9.25136 83.2397 9.24023C83.6236 9.24023 84.5306 9.3237 84.5306 9.8356C84.5306 10.0693 84.2857 10.264 84.1355 10.264C84.0409 10.264 83.9797 10.2307 83.9575 10.1472C83.9185 9.98583 83.7126 9.65198 83.2341 9.65198C82.6554 9.65198 82.4273 9.93019 82.4273 10.2195C82.4273 11.0041 84.653 10.7759 84.653 12.1058C84.653 12.8013 84.0131 13.2353 83.0449 13.2353C82.4051 13.2353 81.9599 13.035 81.754 12.907C81.6594 12.8514 81.6149 12.7735 81.6149 12.7011H81.6094Z" fill="#1D1D1B" stroke="#1D1D1B" stroke-width="0.26" stroke-miterlimit="10"/>
<path d="M50.4785 16.111H59.0918C61.0171 16.111 62.447 16.5228 63.3763 17.3407C64.3389 18.1976 64.8229 19.444 64.8229 21.0854C64.8229 22.1815 64.5837 23.0829 64.0996 23.8007C63.6879 24.4851 63.0313 24.9803 62.141 25.2864C62.9311 25.559 63.482 25.9707 63.7936 26.516C64.1052 27.0279 64.2943 27.9015 64.3611 29.1312L64.4668 31.2344V31.9021C64.4668 32.1414 64.4835 32.364 64.5169 32.5699C64.6226 33.1875 64.8285 33.577 65.1345 33.7495H61.1116C60.9392 33.41 60.8334 33.0484 60.8 32.67C60.7333 32.1247 60.6943 31.7464 60.6943 31.5405L60.6443 29.6431C60.5775 28.6193 60.3716 27.8793 60.0266 27.4397C59.6483 27.0613 58.975 26.8777 58.0124 26.8777H54.1453V33.7495H50.4841V16.1055L50.4785 16.111ZM54.1397 23.8007H58.4242C59.3534 23.8007 60.0433 23.6115 60.4885 23.2387C60.9336 22.8604 61.1617 22.2817 61.1617 21.4972C61.1617 20.7126 60.9392 20.1284 60.4885 19.7556C60.0767 19.3438 59.4591 19.1379 58.63 19.1379H54.1397V23.8063V23.8007Z" fill="#1D1D1B"/>
<path d="M83.786 16.1113V33.7553H80.1748V16.1113H83.786Z" fill="#1D1D1B"/>
<path d="M90.3954 33.8169C89.1602 33.8169 88.0751 33.4831 87.1459 32.8154C86.2167 32.1477 85.7549 31.2352 85.7549 29.6994C85.7549 28.2639 86.1778 27.2345 87.018 26.6225C87.4686 26.2942 87.9861 26.0215 88.5704 25.8101C89.0767 25.6265 91.3803 25.2203 91.6919 25.1869C93.2053 24.981 93.962 24.5359 93.962 23.8515C93.962 23.3396 93.695 23.0057 93.1608 22.8499C92.6266 22.6941 92.137 22.6218 91.6919 22.6218C91.2078 22.6218 90.7793 22.6886 90.401 22.8277C90.0226 22.9668 89.75 23.2227 89.5775 23.5955H86.1221C86.2612 22.5384 86.7397 21.6648 87.5688 20.9804C88.498 20.1958 89.8223 19.8008 91.5416 19.8008C93.4668 19.8008 94.9135 20.1235 95.8761 20.7745C96.8721 21.4589 97.3729 22.4159 97.3729 23.6456V33.8169M94.0121 31.046V26.884C93.528 27.1232 92.8603 27.3458 91.9979 27.5517L90.8127 27.8076C90.1951 27.9801 89.7166 28.1749 89.4718 28.4753C89.1935 28.8203 89.1101 29.2265 89.1101 29.6048C89.1101 30.1168 89.2659 30.3338 89.5775 30.6398C89.8835 30.9124 90.3342 31.0515 90.9184 31.0515H94.0121V31.046Z" fill="#1D1D1B"/>
<path d="M108.001 33.756V25.037C108.001 24.219 107.751 23.6181 107.256 23.2397C106.755 22.8614 106.198 22.6778 105.581 22.6778C104.963 22.6778 104.412 22.8669 103.928 23.2397C103.45 23.6181 103.205 24.2135 103.205 25.037V33.756H99.5938V25.7547C99.5938 23.4289 100.206 21.8765 101.424 21.0864C102.643 20.3019 103.995 19.8734 105.475 19.8066C106.989 19.8066 108.38 20.2017 109.654 20.9862C110.928 21.7708 111.562 23.3621 111.562 25.7547V33.756H108.001Z" fill="#1D1D1B"/>
<path d="M119.864 33.8172C119.096 33.8394 117.889 33.7838 117.232 33.5724C116.575 33.3609 115.685 32.8101 115.168 32.1591C114.172 30.896 113.671 29.1655 113.671 26.9788C113.671 24.7921 114.166 23.1006 115.168 21.7986C116.197 20.4632 117.521 19.7955 119.14 19.7955C120.003 19.7955 120.76 19.968 121.411 20.3074C122.101 20.7191 122.651 21.2477 123.063 21.8987V16.0508H126.569V33.8116H119.858L119.864 33.8172ZM122.941 23.9074C122.39 23.223 120.999 22.8836 120.07 22.8836C119.14 22.8836 118.473 23.2397 117.955 23.9575C117.438 24.6419 117.182 25.5989 117.182 26.8286C117.182 28.1974 117.438 29.2379 117.955 29.9556C118.473 30.6734 119.207 31.0351 120.175 31.0351C121.144 31.0351 121.383 31.0407 122.941 31.0295V23.9074Z" fill="#1D1D1B"/>
<path d="M133.758 16.1113H141.653C143.545 16.1113 144.953 16.5898 145.882 17.5469C146.845 18.5039 147.323 19.9228 147.323 21.8035C147.323 23.584 146.861 24.9862 145.932 26.01C145.003 26.967 143.662 27.4455 141.909 27.4455H137.419V33.7553H133.758V16.1113ZM137.425 24.2628H140.986C141.948 24.2628 142.638 24.057 143.05 23.6452C143.495 23.2669 143.723 22.6214 143.723 21.6978C143.723 20.9132 143.517 20.2789 143.106 19.8004C142.627 19.3886 141.987 19.1828 141.197 19.1828H137.43V24.2628H137.425Z" fill="#1D1D1B"/>
<path d="M147.612 33.7566V27.1408C147.612 25.8054 147.807 24.687 148.202 23.7801C148.597 22.8731 149.137 22.1498 149.827 21.5989C150.483 21.087 151.246 20.7086 152.125 20.4694C153.004 20.2301 153.905 20.1133 154.835 20.1133H155.352V23.7522H154.167C153.171 23.7522 152.431 23.9915 151.947 24.47C151.468 24.9485 151.223 25.6997 151.223 26.7291V33.7566H147.612Z" fill="#1D1D1B"/>
<path d="M161.095 16.1113V18.9324H157.483V16.1113H161.095ZM161.095 20.112V33.7553H157.483V20.112H161.095Z" fill="#1D1D1B"/>
<path d="M171.705 33.756V25.037C171.705 24.219 171.455 23.6181 170.96 23.2397C170.459 22.8614 169.903 22.6778 169.285 22.6778C168.667 22.6778 168.116 22.8669 167.632 23.2397C167.148 23.6181 166.909 24.2135 166.909 25.037V33.756H163.298V25.7547C163.298 23.4289 163.91 21.8765 165.128 21.0864C166.347 20.3019 167.699 19.8734 169.179 19.8066C170.693 19.8066 172.089 20.2017 173.358 20.9862C174.632 21.7708 175.266 23.3621 175.266 25.7547V33.756H171.705Z" fill="#1D1D1B"/>
<path d="M183.001 22.6211H180.886V33.7495H177.325V16.1055H180.886V20.1562H183.001V22.6155" fill="#1D1D1B"/>
<path d="M77.3037 22.8049C76.686 21.553 75.7234 20.6738 74.4159 20.1619C73.2808 19.7558 72.0066 19.6445 70.5988 19.8337C69.1855 20.0228 68.0393 20.6182 67.1435 21.6364C66.5926 22.2429 66.1865 23.0052 65.9305 23.9178C65.6746 24.8303 65.541 25.7484 65.541 26.6609C65.541 27.7793 65.6968 28.8532 66.0084 29.8825C66.3144 30.9175 66.8319 31.7354 67.5552 32.3475C68.2396 32.954 69.1633 33.388 70.3151 33.6439C71.4669 33.8999 72.6131 33.8721 73.7482 33.566C75.0224 33.2989 76.0684 32.6034 76.8975 31.485C77.2758 30.9453 77.5819 30.2832 77.8267 29.5042C78.066 28.7252 78.1884 27.796 78.1884 26.711C78.1884 25.2253 77.8935 23.9178 77.3092 22.7994L77.3037 22.8049ZM71.8619 30.9954C69.9144 30.9954 68.9741 29.1091 68.9741 26.7833C68.9741 24.4575 69.9089 22.5712 71.8619 22.5712C73.8149 22.5712 74.7497 24.4575 74.7497 26.7833C74.7497 29.1091 73.8038 30.9954 71.8619 30.9954Z" fill="#1D1D1B"/>
</svg>
